# xmcd CD database file
# Copyright (C) 1997 Ti Kan
# 
# Track frame offsets:
#     180
#     15658
#     29113
#     44923
#     60971
#     72566
#     96059
#     112885
#     132444
#     143090
#     154961
#     167810
#     187804
#     199327
# 
# Disc length: 2995 seconds
# 
# Revision: 1
# Processed by: cddbd v1.4b41PL1 Copyright (c) Steve Scherf et al.
# Submitted via: DiscPlay 4.0.4
# 
DISCID=cb0bb10e
DTITLE=Cowboys and Indians - The Western Life
DYEAR=1900
DGENRE=
TTITLE0=Big Man
TTITLE1=Western Life
TTITLE2=Crawling Back To You
TTITLE3=Indian Attack
TTITLE4=It's You That Done Me Wrong
TTITLE5=Santa Elena Canyon
TTITLE6=Hell and Texas
TTITLE7=5th Avenue Stomp
TTITLE8=Lassoed in El Paso
TTITLE9=Driving You Out Of My Mind
TTITLE10=Wanted In Texas
TTITLE11=Some Memories Die Hard
TTITLE12=I'm a Ding Dong Daddy
TTITLE13=Rustler's Rhapsody
EXTD=
EXTT0=
EXTT1=
EXTT2=
EXTT3=
EXTT4=
EXTT5=
EXTT6=
EXTT7=
EXTT8=
EXTT9=
EXTT10=
EXTT11=
EXTT12=
EXTT13=
PLAYORDER=
